<svg id="Layer_1" data-name="Layer 1" xmlns="http://www.w3.org/2000/svg" viewBox="0 0 1109.69 329.88">
  <defs>
    <style>
      .cls-1 {
        fill: #52aae4;
      }

      .cls-2 {
        fill: #7cd6ff;
      }
    </style>
  </defs>
  <path class="cls-1" d="M365.66,136.73a4.38,4.38,0,0,1,.53-.25c7.74-3.3,15.43-6.72,23.14-10.1.82-.37,1.61-.79,2.79-1.37-1.14-.56-1.77-.89-2.42-1.18Q316.64,91.21,243.58,58.56V86.2q42.35,18.94,84.69,37.83c.4.18.79.38,1.5.73-.73.36-1.22.63-1.74.86-4.79,2.1-9.58,4.23-14.4,6.28l-.34.16-7.77,3.77c-.73.31-1.38.57-2,.86q-30,13.32-59.92,26.65v28.13Q270,179.7,296.36,168l22.3-9.91,31.24-13.89c1-.46,2.08-.88,3.26-1.37h0v54.08c-5.49,1.72-14,5.55-14.28,12.95a2,2,0,0,0,0,.25v0l-.52,34.61H346v19.68h8.16V244.73h9.14v19.39h8.16V244.75h7.2l.5-34.58V210c0-.05,0-.1,0-.16-.09-1.62-1.24-9.06-14.79-13.37V137.35Z"/>
  <path class="cls-1" d="M209.81,163q-41.66-18.62-83.34-37.18c-.65-.29-1.28-.6-2.2-1,.75-.38,1.21-.64,1.69-.85q41.93-18.72,83.85-37.45V58.89Q137.24,91.32,64.63,123.71c-.77.35-1.51.77-2.7,1.38,1.46.68,2.49,1.17,3.53,1.64q72.18,32.17,144.35,64.4Z"/>
  <path class="cls-2" d="M319.69,204.11c-.07-8.92-1.79-17.4-6.42-25.19-1.23-2.07-2.26-2.54-4.61-1.48-26.39,11.81-52.84,23.48-79.24,35.27a6.07,6.07,0,0,1-5.52-.05q-39.06-17.58-78.19-35c-1-.43-1.94-.81-3.08-1.28-8.15,12.33-9.47,25.87-8.35,40.08,39.88,1.34,70.53,19,92.17,51.91,4.4-5.57,8.41-11.43,13.2-16.56,20.86-22.37,46.72-34.06,77.31-35.08,2.3-.07,2.9-.79,2.79-2.95C319.59,210.57,319.72,207.34,319.69,204.11Z"/>
  <path class="cls-2" d="M498.88,181.57c-4.6,8.63-13.54,13.78-23.94,13.78-16.12,0-28.27-12.22-28.27-28.42s12.15-28.42,28.27-28.42c10.58,0,19.57,5.23,23.45,13.66l1,2.26,9.81-5.74-.85-1.86c-5.62-12.17-18.43-19.74-33.44-19.74-22.87,0-40.12,17.13-40.12,39.84s17.25,39.83,40.12,39.83c14.7,0,27.72-7.47,34-19.5l1-1.88-9.91-5.9Z"/>
  <path class="cls-2" d="M555,127.09c-22.5,0-40.12,17.5-40.12,39.84s17.62,39.83,40.12,39.83a39.84,39.84,0,1,0,0-79.67Zm0,68.26a28.42,28.42,0,1,1,28.13-28.42A28.05,28.05,0,0,1,555,195.35Z"/>
  <path class="cls-2" d="M671.27,140.21c-6.92-8.42-17-13.12-28.71-13.12-22.18,0-39.55,17.5-39.55,39.84s17.37,39.83,39.55,39.83c11.67,0,21.79-4.7,28.71-13.11v11.53H683V99.88h-11.7ZM643,195.35a28.42,28.42,0,1,1,28.28-28.42A28.05,28.05,0,0,1,643,195.35Z"/>
  <path class="cls-2" d="M706.49,99.88a7.94,7.94,0,1,0,8,7.86A8,8,0,0,0,706.49,99.88Z"/>
  <rect class="cls-2" x="700.64" y="128.68" width="11.7" height="76.5"/>
  <polygon class="cls-1" points="783.62 128.68 757.9 189.64 732.32 128.68 719.65 128.68 752.09 205.18 763.86 205.18 796.14 128.68 783.62 128.68"/>
  <path class="cls-1" d="M864.08,140c-7-8.29-17.14-12.92-28.71-12.92-22.17,0-39.54,17.5-39.54,39.84s17.37,39.83,39.54,39.83c11.57,0,21.7-4.63,28.71-12.91v11.33h11.84v-76.5H864.08Zm0,26.92A28.21,28.21,0,1,1,836,138.51,28,28,0,0,1,864.08,166.93Z"/>
  <path class="cls-1" d="M913.51,107.76l-11.85,3.49v17.43H885.82v11.55h15.84v44.55c0,7.63,2,13.07,6.14,16.61,3.59,3.08,8.59,4.6,15.41,4.6a65.22,65.22,0,0,0,9.84-.84l1.91-.29V194l-2.44.22c-7.86.69-14.09,1-16.77-1.43-1.53-1.4-2.24-3.94-2.24-8V140.23H935V128.68H913.51Z"/>
  <path class="cls-1" d="M1005.75,139.4a36.25,36.25,0,0,0-27.68-12.31c-22.91,0-39.54,16.76-39.54,39.84s16.87,39.83,40.12,39.83c14.52,0,26.66-6.33,33.32-17.36l1.17-1.94-10.29-6.08-1.12,2c-4.09,7.47-12.66,11.93-22.94,11.93-14.47,0-25.4-8.91-27.93-22.43h64.89v-2.25c0-.53,0-1.06.06-1.59s.08-1.24.08-1.86A41.93,41.93,0,0,0,1005.75,139.4Zm-27.68-.89c15.22,0,23.58,11.11,25.53,22.86H950.82C953.1,147.59,963.78,138.51,978.07,138.51Z"/>
</svg>
